<svg xmlns="http://www.w3.org/2000/svg" viewBox="0 0 128 128">
  <defs>
    <linearGradient id="bg7" x1="14" y1="10" x2="114" y2="118" gradientUnits="userSpaceOnUse">
      <stop stop-color="#ede9fe" />
      <stop offset="1" stop-color="#c4b5fd" />
    </linearGradient>
  </defs>
  <circle cx="64" cy="64" r="62" fill="url(#bg7)" />
  <path d="M18 126c6-24 25-34 46-34s40 10 46 34z" fill="#4338ca" />
  <circle cx="64" cy="58" r="27" fill="#f7ccb0" />
  <path d="M35 58c0-18 12-28 28-28s28 10 28 28v2H35z" fill="#6d28d9" />
  <path d="M86 47c7 7 10 16 10 28" stroke="#6d28d9" stroke-width="8" stroke-linecap="round" fill="none" />
  <circle cx="54" cy="60" r="3.3" fill="#1f2937" />
  <circle cx="74" cy="60" r="3.3" fill="#1f2937" />
  <path d="M64 67v6" stroke="#a16207" stroke-width="2.2" stroke-linecap="round" />
  <path d="M56 75c2.2 2.6 4.9 3.9 8 3.9s5.8-1.3 8-3.9" stroke="#9f1239" stroke-width="2.2" stroke-linecap="round" fill="none" />
</svg>
