<svg xmlns="http://www.w3.org/2000/svg" viewBox="0 0 128 128">
  <circle cx="64" cy="64" r="62" fill="#ff4824" />
  <path d="M34 52c0-20 13-31 31-31 17 0 30 12 30 31v37H34z" fill="#253245" />
  <circle cx="64" cy="64" r="29" fill="#7b543d" />
  <path d="M38 51c10-17 42-21 52 3-8-4-18-5-27-5-10 0-18 1-25 2z" fill="#182235" />
  <circle cx="53" cy="63" r="3.6" fill="#1f2937" />
  <circle cx="75" cy="63" r="3.6" fill="#1f2937" />
  <path d="M55 78c5 6 13 6 18 0" stroke="#ffede0" stroke-width="4" stroke-linecap="round" fill="none" />
  <path d="M47 38c5-8 12-11 20-11 11 0 19 7 22 17-15-8-31-9-42-6z" fill="#334155" />
</svg>
