<svg xmlns="http://www.w3.org/2000/svg" viewBox="0 0 128 128">
  <defs>
    <linearGradient id="bg8" x1="8" y1="14" x2="120" y2="116" gradientUnits="userSpaceOnUse">
      <stop stop-color="#f1f5f9" />
      <stop offset="1" stop-color="#cbd5e1" />
    </linearGradient>
  </defs>
  <circle cx="64" cy="64" r="62" fill="url(#bg8)" />
  <path d="M16 126c8-24 25-34 48-34s40 10 48 34z" fill="#0f766e" />
  <circle cx="64" cy="58" r="27" fill="#f3c8a7" />
  <path d="M36 54c0-17 12-27 28-27s28 10 28 27v3H36z" fill="#94a3b8" />
  <path d="M42 44c4-6 11-9 22-9s18 3 22 9" stroke="#e2e8f0" stroke-width="4" stroke-linecap="round" />
  <circle cx="54" cy="60" r="3.2" fill="#1f2937" />
  <circle cx="74" cy="60" r="3.2" fill="#1f2937" />
  <path d="M64 67v5" stroke="#92400e" stroke-width="2.2" stroke-linecap="round" />
  <path d="M56 74c2.2 2.7 4.9 4 8 4s5.8-1.3 8-4" stroke="#7f1d1d" stroke-width="2.2" stroke-linecap="round" fill="none" />
</svg>
