<svg xmlns="http://www.w3.org/2000/svg" viewBox="0 0 128 128">
  <circle cx="64" cy="64" r="62" fill="#cffafe"/>
  <path d="M30 108c6-18 20-28 34-28s28 10 34 28" fill="#14b8a6"/>
  <circle cx="64" cy="28" r="10" fill="#111827"/>
  <path d="M34 62c0-24 13-38 30-38s30 14 30 38v18H34z" fill="#111827"/>
  <ellipse cx="64" cy="64" rx="23" ry="27" fill="#f2c4a0"/>
  <path d="M42 54c2-10 11-18 22-18s20 8 22 18" fill="#0f172a"/>
  <path d="M52 61c2 2 4 3 6 3s4-1 6-3" stroke="#1f2937" stroke-width="2.5" stroke-linecap="round" fill="none"/>
  <path d="M68 61c2 2 4 3 6 3s4-1 6-3" stroke="#1f2937" stroke-width="2.5" stroke-linecap="round" fill="none"/>
  <path d="M58 78c2 2 4 3 6 3s4-1 6-3" stroke="#b91c1c" stroke-width="3" stroke-linecap="round" fill="none"/>
  <circle cx="47" cy="71" r="2.5" fill="#fb7185"/>
  <circle cx="81" cy="71" r="2.5" fill="#fb7185"/>
</svg>
