<svg xmlns="http://www.w3.org/2000/svg" viewBox="0 0 128 128">
  <defs>
    <linearGradient id="bg4" x1="14" y1="8" x2="118" y2="114" gradientUnits="userSpaceOnUse">
      <stop stop-color="#dcfce7" />
      <stop offset="1" stop-color="#86efac" />
    </linearGradient>
  </defs>
  <circle cx="64" cy="64" r="62" fill="url(#bg4)" />
  <path d="M16 126c8-24 27-34 48-34s40 10 48 34z" fill="#166534" />
  <path d="M34 84c-3-12-3-23 2-32 5-10 15-17 28-17s23 7 28 17c5 9 5 20 2 32l-7-2c2-9 2-17-1-24-4-8-11-13-22-13s-18 5-22 13c-3 7-3 15-1 24z" fill="#0f766e" />
  <ellipse cx="64" cy="62" rx="23" ry="25" fill="#f3c9a5" />
  <circle cx="55" cy="61" r="3.2" fill="#1f2937" />
  <circle cx="73" cy="61" r="3.2" fill="#1f2937" />
  <path d="M64 67v6" stroke="#92400e" stroke-width="2.2" stroke-linecap="round" />
  <path d="M56 75c2.1 2.7 4.8 3.9 8 3.9s5.9-1.2 8-3.9" stroke="#7f1d1d" stroke-width="2.2" stroke-linecap="round" fill="none" />
</svg>
