<svg xmlns="http://www.w3.org/2000/svg" viewBox="0 0 128 128">
  <circle cx="64" cy="64" r="62" fill="#12b8c9" />
  <circle cx="64" cy="66" r="29" fill="#ffd0aa" />
  <path d="M35 62c0-20 13-35 31-35 18 0 30 14 30 35H82c0-11-7-19-18-19-9 0-16 6-18 19z" fill="#253245" />
  <path d="M36 59c2-18 15-32 30-32 17 0 29 14 31 32-14-11-44-11-61 0z" fill="#253245" />
  <circle cx="53" cy="68" r="3.5" fill="#334155" />
  <circle cx="75" cy="68" r="3.5" fill="#334155" />
  <path d="M55 84c5 6 13 6 18 0" stroke="#111827" stroke-width="4" stroke-linecap="round" fill="none" />
</svg>
