<svg xmlns="http://www.w3.org/2000/svg" viewBox="0 0 128 128">
  <defs>
    <linearGradient id="bg6" x1="10" y1="14" x2="118" y2="114" gradientUnits="userSpaceOnUse">
      <stop stop-color="#e0f2fe" />
      <stop offset="1" stop-color="#7dd3fc" />
    </linearGradient>
  </defs>
  <circle cx="64" cy="64" r="62" fill="url(#bg6)" />
  <path d="M14 126c8-25 27-35 50-35s42 10 50 35z" fill="#0f172a" />
  <circle cx="64" cy="58" r="27" fill="#f3c6a0" />
  <path d="M39 52c2-14 13-24 25-24s23 10 25 24" stroke="#0f172a" stroke-width="10" stroke-linecap="round" fill="none" />
  <rect x="42" y="82" width="44" height="28" rx="14" fill="#1d4ed8" />
  <circle cx="54" cy="60" r="3.3" fill="#0f172a" />
  <circle cx="74" cy="60" r="3.3" fill="#0f172a" />
  <path d="M64 67v5" stroke="#b45309" stroke-width="2.2" stroke-linecap="round" />
  <path d="M56 74c2.2 2.6 4.9 3.8 8 3.8s5.8-1.2 8-3.8" stroke="#7f1d1d" stroke-width="2.2" stroke-linecap="round" fill="none" />
</svg>
