<svg xmlns="http://www.w3.org/2000/svg" viewBox="0 0 128 128">
  <circle cx="64" cy="64" r="62" fill="#fee2e2"/>
  <path d="M28 45L43 24l8 21" fill="#f97316"/>
  <path d="M100 45L85 24l-8 21" fill="#f97316"/>
  <circle cx="64" cy="67" r="35" fill="#f97316"/>
  <ellipse cx="64" cy="80" rx="19" ry="14" fill="#ffedd5"/>
  <path d="M48 46l6 12M62 40l2 14M80 46l-6 12M66 40l-2 14" stroke="#111827" stroke-width="4" stroke-linecap="round"/>
  <circle cx="50" cy="66" r="5" fill="#111827"/>
  <circle cx="78" cy="66" r="5" fill="#111827"/>
  <path d="M64 72l-4 7h8z" fill="#111827"/>
  <path d="M64 82c-4 0-8 3-8 7M64 82c4 0 8 3 8 7" stroke="#7c2d12" stroke-width="3" stroke-linecap="round" fill="none"/>
  <path d="M40 77h15M88 77H73" stroke="#7c2d12" stroke-width="2.5" stroke-linecap="round"/>
</svg>
