<svg xmlns="http://www.w3.org/2000/svg" viewBox="0 0 128 128">
  <defs>
    <linearGradient id="bg5" x1="12" y1="12" x2="116" y2="116" gradientUnits="userSpaceOnUse">
      <stop stop-color="#ffedd5" />
      <stop offset="1" stop-color="#fdba74" />
    </linearGradient>
  </defs>
  <circle cx="64" cy="64" r="62" fill="url(#bg5)" />
  <path d="M16 126c7-24 25-34 48-34s41 10 48 34z" fill="#7c3aed" />
  <circle cx="64" cy="57" r="27" fill="#f2c199" />
  <path d="M38 52c0-16 11-26 26-26s26 10 26 26v5H38z" fill="#111827" />
  <circle cx="54" cy="60" r="3.4" fill="#111827" />
  <circle cx="74" cy="60" r="3.4" fill="#111827" />
  <path d="M64 67v5" stroke="#92400e" stroke-width="2.3" stroke-linecap="round" />
  <path d="M56 74c2.2 2.9 4.9 4.2 8 4.2s5.8-1.3 8-4.2" stroke="#b91c1c" stroke-width="2.3" stroke-linecap="round" fill="none" />
  <path d="M50 78c2 8 7 12 14 12s12-4 14-12" stroke="#78350f" stroke-width="5" stroke-linecap="round" fill="none" />
</svg>
