<svg xmlns="http://www.w3.org/2000/svg" viewBox="0 0 128 128">
  <defs>
    <linearGradient id="bg2" x1="14" y1="14" x2="114" y2="114" gradientUnits="userSpaceOnUse">
      <stop stop-color="#dbeafe" />
      <stop offset="1" stop-color="#93c5fd" />
    </linearGradient>
  </defs>
  <circle cx="64" cy="64" r="62" fill="url(#bg2)" />
  <path d="M20 126c5-23 22-34 44-34s39 11 44 34z" fill="#2563eb" />
  <circle cx="64" cy="58" r="28" fill="#8d5524" />
  <path d="M36 56c0-19 12-30 28-30s28 11 28 30v4H36z" fill="#111827" />
  <path d="M40 44c4-7 12-11 24-11s20 4 24 11" stroke="#1f2937" stroke-width="7" stroke-linecap="round" />
  <circle cx="54" cy="61" r="3.5" fill="#111827" />
  <circle cx="74" cy="61" r="3.5" fill="#111827" />
  <path d="M64 67v6" stroke="#5b3718" stroke-width="2.4" stroke-linecap="round" />
  <path d="M54 75c3 2.8 6.3 4.1 10 4.1s7-1.3 10-4.1" stroke="#7f1d1d" stroke-width="2.4" stroke-linecap="round" fill="none" />
</svg>
