<svg xmlns="http://www.w3.org/2000/svg" viewBox="0 0 128 128">
  <defs>
    <linearGradient id="bg3" x1="10" y1="20" x2="118" y2="110" gradientUnits="userSpaceOnUse">
      <stop stop-color="#fce7f3" />
      <stop offset="1" stop-color="#f9a8d4" />
    </linearGradient>
  </defs>
  <circle cx="64" cy="64" r="62" fill="url(#bg3)" />
  <path d="M18 126c8-24 25-34 46-34s38 10 46 34z" fill="#be185d" />
  <circle cx="64" cy="58" r="28" fill="#f6c7a6" />
  <path d="M37 55c0-18 11-28 27-28 17 0 27 10 27 28v5H37z" fill="#334155" />
  <rect x="44" y="55" width="18" height="12" rx="6" fill="none" stroke="#334155" stroke-width="2.5" />
  <rect x="66" y="55" width="18" height="12" rx="6" fill="none" stroke="#334155" stroke-width="2.5" />
  <path d="M62 61h4" stroke="#334155" stroke-width="2.2" stroke-linecap="round" />
  <circle cx="53" cy="61" r="2.8" fill="#111827" />
  <circle cx="75" cy="61" r="2.8" fill="#111827" />
  <path d="M64 68v6" stroke="#b45309" stroke-width="2.2" stroke-linecap="round" />
  <path d="M55 75c2.4 2.9 5.5 4.2 9 4.2s6.6-1.3 9-4.2" stroke="#9d174d" stroke-width="2.4" stroke-linecap="round" fill="none" />
</svg>
