<svg xmlns="http://www.w3.org/2000/svg" viewBox="0 0 128 128">
  <circle cx="64" cy="64" r="62" fill="#ff4824" />
  <circle cx="64" cy="65" r="30" fill="#ffe0a6" />
  <path d="M29 57c5-19 18-30 35-30s30 11 35 30c-8-8-20-13-35-13S37 49 29 57z" fill="#fbb000" />
  <path d="M31 54c-7 4-10 11-8 20 6-4 9-10 8-20zm66 0c7 4 10 11 8 20-6-4-9-10-8-20z" fill="#fbb000" />
  <circle cx="53" cy="66" r="3.4" fill="#334155" />
  <circle cx="75" cy="66" r="3.4" fill="#334155" />
  <path d="M55 82c5 6 13 6 18 0" stroke="#111827" stroke-width="4" stroke-linecap="round" fill="none" />
</svg>
