<svg xmlns="http://www.w3.org/2000/svg" viewBox="0 0 128 128">
  <circle cx="64" cy="64" r="62" fill="#dcfce7"/>
  <path d="M30 108c6-18 20-28 34-28s28 10 34 28" fill="#2563eb"/>
  <path d="M36 52c3-20 14-32 28-32 16 0 27 12 28 32" fill="#0f172a"/>
  <ellipse cx="64" cy="63" rx="24" ry="29" fill="#edbc96"/>
  <path d="M42 55c5-11 13-17 22-17s17 6 22 17" fill="#111827"/>
  <circle cx="54" cy="63" r="4" fill="#111827"/>
  <circle cx="74" cy="63" r="4" fill="#111827"/>
  <path d="M60 75h8" stroke="#7c2d12" stroke-width="3" stroke-linecap="round"/>
  <path d="M56 82c3 2 5 3 8 3s5-1 8-3" stroke="#7c2d12" stroke-width="3" stroke-linecap="round" fill="none"/>
</svg>
